<?xml version="1.0" standalone="no"?>
<!DOCTYPE svg PUBLIC "-//W3C//DTD SVG 20010904//EN"
 "http://www.w3.org/TR/2001/REC-SVG-20010904/DTD/svg10.dtd">
<svg version="1.0" xmlns="http://www.w3.org/2000/svg"
 width="2300.000000pt" height="2300.000000pt" viewBox="0 0 2300.000000 2300.000000"
 preserveAspectRatio="xMidYMid meet">
<metadata>
Created by potrace 1.11, written by Peter Selinger 2001-2013
</metadata>
<g transform="translate(0.000000,2300.000000) scale(0.100000,-0.100000)"
fill="#000000" stroke="none">
<path d="M250 11500 l0 -11500 11250 0 11250 0 0 11500 0 11500 -11250 0
-11250 0 0 -11500z m11790 8874 c0 -4 -101 -516 -226 -1138 -124 -622 -257
-1311 -295 -1531 -38 -220 -119 -670 -179 -1000 -205 -1126 -266 -1527 -365
-2405 -19 -173 -53 -459 -75 -635 -97 -786 -173 -1715 -265 -3225 -117 -1930
-254 -4965 -295 -6530 -6 -223 -13 -483 -16 -577 l-6 -173 -496 0 -495 0 6
388 c22 1285 175 4778 302 6882 98 1616 179 2602 280 3400 14 107 41 337 60
510 109 972 171 1381 389 2580 69 377 150 831 181 1010 31 179 100 548 154
820 55 272 97 497 95 499 -9 10 -577 -58 -832 -100 -586 -96 -915 -225 -1246
-489 -173 -137 -415 -391 -635 -665 -53 -66 -100 -122 -104 -125 -9 -6 -786
591 -787 604 0 19 258 331 439 530 348 384 732 670 1138 848 448 196 924 291
2008 403 1283 132 1265 130 1265 119z m390 -68 c481 -109 942 -328 1310 -623
111 -89 302 -275 400 -388 407 -475 687 -1098 804 -1792 54 -319 61 -418 61
-858 0 -428 -6 -513 -56 -860 -140 -980 -551 -2020 -1133 -2873 -61 -90 -151
-225 -201 -300 -49 -76 -136 -203 -191 -282 -449 -643 -749 -1274 -878 -1850
-76 -340 -100 -590 -93 -945 10 -461 76 -843 227 -1312 28 -85 1602 -4268
1838 -4884 l11 -27 -467 -176 c-256 -96 -467 -174 -468 -173 -12 11 -1824
4828 -1867 4962 -127 391 -218 830 -259 1250 -19 194 -16 732 5 925 106 965
451 1819 1127 2795 64 94 152 223 193 287 42 64 115 172 163 240 762 1086
1159 2482 1038 3656 -124 1210 -765 2022 -1779 2252 -55 13 -101 24 -102 25
-2 1 145 763 178 923 6 28 16 52 22 52 7 0 59 -11 117 -24z"/>
</g>
</svg>
